<mxfile host="app.diagrams.net" modified="2024-05-25T09:34:38.070Z" agent="Mozilla/5.0 (Windows NT 10.0; Win64; x64) AppleWebKit/537.36 (KHTML, like Gecko) Chrome/125.0.0.0 Safari/537.36" version="24.4.8" etag="m9foBSE46a71KuIDP8Dk" type="github">
  <diagram name="Page-1" id="a8Ph92Nv0mdoe5OcCmD-">
    <mxGraphModel>
      <root>
        <mxCell id="0" />
        <mxCell id="1" parent="0" />
      </root>
    </mxGraphModel>
  </diagram>
</mxfile>
